<?xml version="1.0" encoding="utf-8" standalone="no"?>
<!DOCTYPE svg PUBLIC "-//W3C//DTD SVG 1.1//EN"
  "http://www.w3.org/Graphics/SVG/1.1/DTD/svg11.dtd">
<svg xmlns:xlink="http://www.w3.org/1999/xlink" width="380.782875pt" height="193.294875pt" viewBox="0 0 380.782875 193.294875" xmlns="http://www.w3.org/2000/svg" version="1.1">
 <metadata>
  <rdf:RDF xmlns:dc="http://purl.org/dc/elements/1.1/" xmlns:cc="http://creativecommons.org/ns#" xmlns:rdf="http://www.w3.org/1999/02/22-rdf-syntax-ns#">
   <cc:Work>
    <dc:type rdf:resource="http://purl.org/dc/dcmitype/StillImage"/>
    <dc:date>2024-12-30T13:44:24.897866</dc:date>
    <dc:format>image/svg+xml</dc:format>
    <dc:creator>
     <cc:Agent>
      <dc:title>Matplotlib v3.10.0, https://matplotlib.org/</dc:title>
     </cc:Agent>
    </dc:creator>
   </cc:Work>
  </rdf:RDF>
 </metadata>
 <defs>
  <style type="text/css">*{stroke-linejoin: round; stroke-linecap: butt}</style>
 </defs>
 <g id="figure_1">
  <g id="patch_1">
   <path d="M 0 193.294875 
L 380.782875 193.294875 
L 380.782875 -0 
L 0 -0 
z
" style="fill: #ffffff"/>
  </g>
  <g id="axes_1">
   <g id="patch_2">
    <path d="M 23.662875 178.56 
L 59.374875 178.56 
L 59.374875 142.848 
L 23.662875 142.848 
z
" clip-path="url(#p0866c82d0f)" style="fill: #add8e6; stroke: #000000; stroke-linejoin: miter"/>
   </g>
   <g id="patch_3">
    <path d="M 23.662875 142.848 
L 59.374875 142.848 
L 59.374875 107.136 
L 23.662875 107.136 
z
" clip-path="url(#p0866c82d0f)" style="fill: #add8e6; stroke: #000000; stroke-linejoin: miter"/>
   </g>
   <g id="patch_4">
    <path d="M 59.374875 178.56 
L 130.798875 178.56 
L 130.798875 107.136 
L 59.374875 107.136 
z
" clip-path="url(#p0866c82d0f)" style="fill: #add8e6; stroke: #000000; stroke-linejoin: miter"/>
   </g>
   <g id="patch_5">
    <path d="M 23.662875 107.136 
L 130.798875 107.136 
L 130.798875 71.424 
L 23.662875 71.424 
z
" clip-path="url(#p0866c82d0f)" style="fill: #add8e6; stroke: #000000; stroke-linejoin: miter"/>
   </g>
   <g id="patch_6">
    <path d="M 130.798875 178.56 
L 237.934875 178.56 
L 237.934875 71.424 
L 130.798875 71.424 
z
" clip-path="url(#p0866c82d0f)" style="fill: #add8e6; stroke: #000000; stroke-linejoin: miter"/>
   </g>
   <g id="patch_7">
    <path d="M 23.662875 71.424 
L 237.934875 71.424 
L 237.934875 35.712 
L 23.662875 35.712 
z
" clip-path="url(#p0866c82d0f)" style="fill: #add8e6; stroke: #000000; stroke-linejoin: miter"/>
   </g>
   <g id="patch_8">
    <path d="M 237.934875 178.56 
L 380.782875 178.56 
L 380.782875 35.712 
L 237.934875 35.712 
z
" clip-path="url(#p0866c82d0f)" style="fill: #add8e6; stroke: #000000; stroke-linejoin: miter"/>
   </g>
   <g id="patch_9">
    <path d="M 23.662875 35.712 
L 380.782875 35.712 
L 380.782875 -0 
L 23.662875 -0 
z
" clip-path="url(#p0866c82d0f)" style="fill: #add8e6; stroke: #000000; stroke-linejoin: miter"/>
   </g>
   <g id="text_1">
    <!-- 1 -->
    <g transform="translate(38.337625 163.463375) scale(0.1 -0.1)">
     <defs>
      <path id="DejaVuSans-31" d="M 794 531 
L 1825 531 
L 1825 4091 
L 703 3866 
L 703 4441 
L 1819 4666 
L 2450 4666 
L 2450 531 
L 3481 531 
L 3481 0 
L 794 0 
L 794 531 
z
" transform="scale(0.015625)"/>
     </defs>
     <use xlink:href="#DejaVuSans-31"/>
    </g>
   </g>
   <g id="text_2">
    <!-- $1^2$ -->
    <g transform="translate(35.918875 127.751375) scale(0.1 -0.1)">
     <defs>
      <path id="DejaVuSans-32" d="M 1228 531 
L 3431 531 
L 3431 0 
L 469 0 
L 469 531 
Q 828 903 1448 1529 
Q 2069 2156 2228 2338 
Q 2531 2678 2651 2914 
Q 2772 3150 2772 3378 
Q 2772 3750 2511 3984 
Q 2250 4219 1831 4219 
Q 1534 4219 1204 4116 
Q 875 4013 500 3803 
L 500 4441 
Q 881 4594 1212 4672 
Q 1544 4750 1819 4750 
Q 2544 4750 2975 4387 
Q 3406 4025 3406 3419 
Q 3406 3131 3298 2873 
Q 3191 2616 2906 2266 
Q 2828 2175 2409 1742 
Q 1991 1309 1228 531 
z
" transform="scale(0.015625)"/>
     </defs>
     <use xlink:href="#DejaVuSans-31" transform="translate(0 0.765625)"/>
     <use xlink:href="#DejaVuSans-32" transform="translate(64.580078 39.046875) scale(0.7)"/>
    </g>
   </g>
   <g id="text_3">
    <!-- $2^2$ -->
    <g transform="translate(89.486875 145.607375) scale(0.1 -0.1)">
     <use xlink:href="#DejaVuSans-32" transform="translate(0 0.765625)"/>
     <use xlink:href="#DejaVuSans-32" transform="translate(64.580078 39.046875) scale(0.7)"/>
    </g>
   </g>
   <g id="text_4">
    <!-- 1+2 -->
    <g transform="translate(48.822531 92.039375) scale(0.1 -0.1)">
     <defs>
      <path id="DejaVuSans-2b" d="M 2944 4013 
L 2944 2272 
L 4684 2272 
L 4684 1741 
L 2944 1741 
L 2944 0 
L 2419 0 
L 2419 1741 
L 678 1741 
L 678 2272 
L 2419 2272 
L 2419 4013 
L 2944 4013 
z
" transform="scale(0.015625)"/>
     </defs>
     <use xlink:href="#DejaVuSans-31"/>
     <use xlink:href="#DejaVuSans-2b" transform="translate(63.623047 0)"/>
     <use xlink:href="#DejaVuSans-32" transform="translate(147.412109 0)"/>
    </g>
   </g>
   <g id="text_5">
    <!-- $3^2$ -->
    <g transform="translate(178.766875 127.751375) scale(0.1 -0.1)">
     <defs>
      <path id="DejaVuSans-33" d="M 2597 2516 
Q 3050 2419 3304 2112 
Q 3559 1806 3559 1356 
Q 3559 666 3084 287 
Q 2609 -91 1734 -91 
Q 1441 -91 1130 -33 
Q 819 25 488 141 
L 488 750 
Q 750 597 1062 519 
Q 1375 441 1716 441 
Q 2309 441 2620 675 
Q 2931 909 2931 1356 
Q 2931 1769 2642 2001 
Q 2353 2234 1838 2234 
L 1294 2234 
L 1294 2753 
L 1863 2753 
Q 2328 2753 2575 2939 
Q 2822 3125 2822 3475 
Q 2822 3834 2567 4026 
Q 2313 4219 1838 4219 
Q 1578 4219 1281 4162 
Q 984 4106 628 3988 
L 628 4550 
Q 988 4650 1302 4700 
Q 1616 4750 1894 4750 
Q 2613 4750 3031 4423 
Q 3450 4097 3450 3541 
Q 3450 3153 3228 2886 
Q 3006 2619 2597 2516 
z
" transform="scale(0.015625)"/>
     </defs>
     <use xlink:href="#DejaVuSans-33" transform="translate(0 0.765625)"/>
     <use xlink:href="#DejaVuSans-32" transform="translate(64.580078 39.046875) scale(0.7)"/>
    </g>
   </g>
   <g id="text_6">
    <!-- 1+2+3 -->
    <g transform="translate(112.875438 56.327375) scale(0.1 -0.1)">
     <use xlink:href="#DejaVuSans-31"/>
     <use xlink:href="#DejaVuSans-2b" transform="translate(63.623047 0)"/>
     <use xlink:href="#DejaVuSans-32" transform="translate(147.412109 0)"/>
     <use xlink:href="#DejaVuSans-2b" transform="translate(211.035156 0)"/>
     <use xlink:href="#DejaVuSans-33" transform="translate(294.824219 0)"/>
    </g>
   </g>
   <g id="text_7">
    <!-- $4^2$ -->
    <g transform="translate(303.758875 109.895375) scale(0.1 -0.1)">
     <defs>
      <path id="DejaVuSans-34" d="M 2419 4116 
L 825 1625 
L 2419 1625 
L 2419 4116 
z
M 2253 4666 
L 3047 4666 
L 3047 1625 
L 3713 1625 
L 3713 1100 
L 3047 1100 
L 3047 0 
L 2419 0 
L 2419 1100 
L 313 1100 
L 313 1709 
L 2253 4666 
z
" transform="scale(0.015625)"/>
     </defs>
     <use xlink:href="#DejaVuSans-34" transform="translate(0 0.765625)"/>
     <use xlink:href="#DejaVuSans-32" transform="translate(64.580078 39.046875) scale(0.7)"/>
    </g>
   </g>
   <g id="text_8">
    <!-- 4 -->
    <g transform="translate(199.041625 20.615375) scale(0.1 -0.1)">
     <use xlink:href="#DejaVuSans-34"/>
    </g>
   </g>
   <g id="text_9">
    <!-- $\longleftarrow\text{n}\longrightarrow$ -->
    <g transform="translate(176.482875 190.79925) scale(0.12 -0.12)">
     <defs>
      <path id="DejaVuSans-27f5" d="M 313 1866 
L 313 2147 
L 1541 3375 
L 1916 3000 
L 1188 2272 
L 8809 2272 
L 8809 1741 
L 1188 1741 
L 1916 1013 
L 1541 638 
L 313 1866 
z
" transform="scale(0.015625)"/>
      <path id="DejaVuSans-6e" d="M 3513 2113 
L 3513 0 
L 2938 0 
L 2938 2094 
Q 2938 2591 2744 2837 
Q 2550 3084 2163 3084 
Q 1697 3084 1428 2787 
Q 1159 2491 1159 1978 
L 1159 0 
L 581 0 
L 581 3500 
L 1159 3500 
L 1159 2956 
Q 1366 3272 1645 3428 
Q 1925 3584 2291 3584 
Q 2894 3584 3203 3211 
Q 3513 2838 3513 2113 
z
" transform="scale(0.015625)"/>
      <path id="DejaVuSans-27f6" d="M 8863 2147 
L 8863 1866 
L 7634 638 
L 7259 1013 
L 7988 1741 
L 366 1741 
L 366 2272 
L 7988 2272 
L 7259 3000 
L 7634 3375 
L 8863 2147 
z
" transform="scale(0.015625)"/>
     </defs>
     <use xlink:href="#DejaVuSans-27f5" transform="translate(19.482422 0)"/>
     <use xlink:href="#DejaVuSans-6e" transform="translate(182.324219 0)"/>
     <use xlink:href="#DejaVuSans-27f6" transform="translate(265.185547 0)"/>
    </g>
   </g>
   <g id="text_10">
    <!-- $\longleftarrow\text{n+1}\longrightarrow$ -->
    <g transform="translate(9.118125 123.84) rotate(-90) scale(0.12 -0.12)">
     <use xlink:href="#DejaVuSans-27f5" transform="translate(19.482422 0.09375)"/>
     <use xlink:href="#DejaVuSans-6e" transform="translate(182.324219 0.09375)"/>
     <use xlink:href="#DejaVuSans-2b" transform="translate(245.703125 0.09375)"/>
     <use xlink:href="#DejaVuSans-31" transform="translate(329.492188 0.09375)"/>
     <use xlink:href="#DejaVuSans-27f6" transform="translate(412.597656 0.09375)"/>
    </g>
   </g>
  </g>
 </g>
 <defs>
  <clipPath id="p0866c82d0f">
   <rect x="23.662875" y="0" width="357.12" height="178.56"/>
  </clipPath>
 </defs>
</svg>
